# xmcd CD database file
#
# Track frame offsets:
#	150
#	24210
#	40690
#	67532
#	85252
#	109902
#	133002
#	155692
#	175695
#	194830
#
# Disc length: 2809 seconds
#
# Revision: 0
# Processed by: cddbd v1.5.1PL0 Copyright (c) Steve Scherf et al.
# Submitted via: CDex 1.51
#
DISCID=7a0af70a
DTITLE=松山千春 - 起承転結10
DYEAR=2005
DGENRE=JPop
TTITLE0=egoist:エゴイスト　【自己中心主義者】
TTITLE1=受難の時代
TTITLE2=存在
TTITLE3=冬のアリア
TTITLE4=都会の天使
TTITLE5=兵士の詩
TTITLE6=最後の涙
TTITLE7=君の全てを
TTITLE8=一輪の花
TTITLE9=こもれ陽
EXTD=YEAR: 2005
EXTT0=
EXTT1=
EXTT2=
EXTT3=
EXTT4=
EXTT5=
EXTT6=
EXTT7=
EXTT8=
EXTT9=
PLAYORDER=
